# xmcd
#
# Track frame offsets:
#	150
#	13800
#	24225
#	34800
#	48375
#	63675
#	75715
#	87825
#	100950
#	112875
#	122962
#	135300
#
# Disc length: 1942 seconds
#
# Revision: 0
# Processed by: cddbd v1.5.1PL2 Copyright (c) Steve Scherf et al.
# Submitted via: dBpowerAMP V4.0
#
DISCID=9607940c
DTITLE=Various Artist - Siente Country
DYEAR=1900
DGENRE=Country
TTITLE0=Rose Garden - 
TTITLE1=King of the road - 
TTITLE2=Jambalaya - 
TTITLE3=DIVORCE - 
TTITLE4=Cold cold heart - 
TTITLE5=I can´t stop loving you - Varios
TTITLE6=Sweet dreams (of you) - 
TTITLE7=Behind closed door - 
TTITLE8=Is there something on your mind - 
TTITLE9=This old house - 
TTITLE10=There goes my everything - 
TTITLE11=Green green grass of home - 
EXTD=
EXTT0=
EXTT1=
EXTT2=
EXTT3=
EXTT4=
EXTT5=
EXTT6=
EXTT7=
EXTT8=
EXTT9=
EXTT10=
EXTT11=
PLAYORDER=
